<svg width="42" height="42" viewBox="0 0 42 42" fill="none" xmlns="http://www.w3.org/2000/svg">
<path d="M29.9106 14.02C29.9568 12.1907 28.5026 11.9133 27.2643 11.605C25.3688 11.1712 23.4277 10.9693 21.4836 11.0038V11.0038C19.5395 10.9693 17.5984 11.1712 15.703 11.605C14.4646 11.9133 13.0105 12.1907 13.0568 14.02C13.1236 16.548 13.0568 19.0761 13.0568 21.6042C13.0439 22.0212 13.1414 22.4342 13.3394 22.8014C15.1845 26.1776 17.7876 29.0797 20.9441 31.2797C21.0905 31.398 21.27 31.4681 21.4579 31.4801V31.4801C21.6458 31.4681 21.8253 31.398 21.9717 31.2797C25.1282 29.0797 27.7314 26.1776 29.5765 22.8014C29.7745 22.4342 29.872 22.0212 29.8591 21.6042C29.8951 19.0761 29.8438 16.548 29.9106 14.02Z" fill="black" fill-opacity="1"/>
<circle cx="21.0002" cy="21.0001" r="19.1818" stroke="black" stroke-opacity="1" stroke-width="2"/>
</svg>
