<svg width="42" height="42" viewBox="0 0 42 42" fill="none" xmlns="http://www.w3.org/2000/svg">
<path fill-rule="evenodd" clip-rule="evenodd" d="M31.0114 17.5325H25.2376C25.1797 17.5312 25.1245 17.5073 25.084 17.4659C25.0435 17.4245 25.0207 17.3688 25.0207 17.3108V11.5419C25.0207 11.3982 24.9637 11.2603 24.8621 11.1587C24.7605 11.0571 24.6226 11 24.4789 11H18.0745C17.9308 11 17.7929 11.0571 17.6913 11.1587C17.5897 11.2603 17.5325 11.3982 17.5325 11.5419V17.3108C17.5325 17.3696 17.5091 17.426 17.4676 17.4676C17.426 17.5092 17.3696 17.5325 17.3109 17.5325H11.542C11.3982 17.5325 11.2604 17.5896 11.1588 17.6913C11.0571 17.7929 11 17.9307 11 18.0745V24.4789C11 24.6226 11.0571 24.7605 11.1588 24.8621C11.2604 24.9637 11.3982 25.0208 11.542 25.0208H17.3109C17.3696 25.0208 17.426 25.0442 17.4676 25.0857C17.5091 25.1273 17.5325 25.1837 17.5325 25.2425V31.0114C17.5325 31.1552 17.5897 31.293 17.6913 31.3946C17.7929 31.4963 17.9308 31.5534 18.0745 31.5534H24.4789C24.6226 31.5534 24.7605 31.4963 24.8621 31.3946C24.9637 31.293 25.0207 31.1552 25.0207 31.0114V25.2524C25.0207 25.1944 25.0435 25.1388 25.084 25.0973C25.1245 25.0559 25.1797 25.032 25.2376 25.0307H31.0114C31.1552 25.0307 31.293 24.9736 31.3946 24.8719C31.4963 24.7703 31.5533 24.6325 31.5533 24.4888V18.0843C31.5546 18.0123 31.5415 17.9408 31.5149 17.8739C31.4883 17.807 31.4486 17.7461 31.3981 17.6947C31.3477 17.6434 31.2875 17.6026 31.2211 17.5747C31.1547 17.5469 31.0834 17.5325 31.0114 17.5325V17.5325Z" fill="black" fill-opacity="1"/>
<circle cx="21.0002" cy="21.0001" r="19.1818" stroke="black" stroke-opacity="1" stroke-width="2"/>
</svg>
