<svg width="42" height="42" viewBox="0 0 42 42" fill="none" xmlns="http://www.w3.org/2000/svg">
<path d="M12.0996 29.0399V30.9638C12.0996 31.1202 12.1618 31.2701 12.2723 31.3807C12.3829 31.4912 12.5328 31.5533 12.6892 31.5533H16.0547C16.211 31.5533 16.361 31.4912 16.4715 31.3807C16.5821 31.2701 16.6441 31.1202 16.6441 30.9638V29.0399H12.0996Z" fill="black" fill-opacity="1"/>
<path d="M14.5429 11.028C14.4482 10.9907 14.3428 10.9907 14.2481 11.028C12.1527 11.9444 12.1045 14.983 12.1045 14.983V27.2768H16.649V14.983C16.649 14.983 16.6169 11.9551 14.5429 11.028Z" fill="black" fill-opacity="1"/>
<path d="M18.7881 29.0399V30.9638C18.7881 31.1202 18.8502 31.2701 18.9608 31.3807C19.0713 31.4912 19.2213 31.5533 19.3776 31.5533H22.7485C22.9044 31.5519 23.0536 31.4894 23.1638 31.3791C23.2741 31.2689 23.3366 31.1197 23.338 30.9638V29.0399H18.7881Z" fill="black" fill-opacity="1"/>
<path d="M21.2099 11.028C21.1152 10.9907 21.0098 10.9907 20.9151 11.028C18.8197 11.9444 18.7715 14.983 18.7715 14.983V27.2768H23.3214V14.983C23.3214 14.983 23.3053 11.9551 21.2099 11.028Z" fill="black" fill-opacity="1"/>
<path d="M25.4756 29.0399V30.9638C25.4756 31.1202 25.5377 31.2701 25.6483 31.3807C25.7588 31.4912 25.9088 31.5533 26.0651 31.5533H29.436C29.5924 31.5533 29.7423 31.4912 29.8529 31.3807C29.9634 31.2701 30.0255 31.1202 30.0255 30.9638V29.0399H25.4756Z" fill="black" fill-opacity="1"/>
<path d="M27.8982 11.028C27.8035 10.9907 27.6983 10.9907 27.6036 11.028C25.5082 11.9444 25.46 14.983 25.46 14.983V27.2768H30.0098V14.983C30.0098 14.983 29.9937 11.9551 27.8982 11.028Z" fill="black" fill-opacity="1"/>
<circle cx="21.0002" cy="21.0001" r="19.1818" stroke="black" stroke-opacity="1" stroke-width="2"/>
</svg>
